HIERARCHY
ROOT joint_Root
{
	OFFSET 0.0 0.0 0.0
	CHANNELS 6 Xposition Yposition Zposition Zrotation Xrotation Yrotation 
	JOINT Hips
	{
		OFFSET -17.1583 93.1646 452.98
		CHANNELS 6 Xposition Yposition Zposition Zrotation Xrotation Yrotation 
		JOINT Spine
		{
			OFFSET 15.7357 0.0 0.0
			CHANNELS 6 Xposition Yposition Zposition Zrotation Xrotation Yrotation 
			JOINT Chest
			{
				OFFSET 8.98455 -0.406207 0.0
				CHANNELS 6 Xposition Yposition Zposition Zrotation Xrotation Yrotation 
				JOINT Neck
				{
					OFFSET 16.3773 0.0 0.0
					CHANNELS 6 Xposition Yposition Zposition Zrotation Xrotation Yrotation 
					JOINT Head
					{
						OFFSET 6.45672 0.0 0.0
						CHANNELS 6 Xposition Yposition Zposition Zrotation Xrotation Yrotation 
						End Site
						{
							OFFSET 0.0 0.0 0.0
						}
					}
				}
				JOINT Shoulder_L
				{
					OFFSET 12.9942 -0.242716 4.98039
					CHANNELS 6 Xposition Yposition Zposition Zrotation Xrotation Yrotation 
					JOINT UpperArm_L
					{
						OFFSET 5.34809 0.0 0.0
						CHANNELS 6 Xposition Yposition Zposition Zrotation Xrotation Yrotation 
						JOINT LowerArm_L
						{
							OFFSET 24.3286 1.87007e-05 0.0
							CHANNELS 6 Xposition Yposition Zposition Zrotation Xrotation Yrotation 
							JOINT Hand_L
							{
								OFFSET 22.2916 0.0 0.0
								CHANNELS 6 Xposition Yposition Zposition Zrotation Xrotation Yrotation 
								End Site
								{
									OFFSET 0.0 0.0 0.0
								}
							}
						}
					}
				}
				JOINT Shoulder_R
				{
					OFFSET 12.9945 -0.242716 -4.98039
					CHANNELS 6 Xposition Yposition Zposition Zrotation Xrotation Yrotation 
					JOINT UpperArm_R
					{
						OFFSET -5.34813 0.0 0.0
						CHANNELS 6 Xposition Yposition Zposition Zrotation Xrotation Yrotation 
						JOINT LowerArm_R
						{
							OFFSET -24.3289 0.000322201 0.0
							CHANNELS 6 Xposition Yposition Zposition Zrotation Xrotation Yrotation 
							JOINT Hand_R
							{
								OFFSET -22.2915 -0.000108084 0.0
								CHANNELS 6 Xposition Yposition Zposition Zrotation Xrotation Yrotation 
								End Site
								{
									OFFSET 0.0 0.0 0.0
								}
							}
						}
					}
				}
			}
		}
		JOINT UpperLeg_L
		{
			OFFSET -2.19248 -6.46944 0.0
			CHANNELS 6 Xposition Yposition Zposition Zrotation Xrotation Yrotation 
			JOINT LowerLeg_L
			{
				OFFSET 39.0811 0.0 -1.23785e-05
				CHANNELS 6 Xposition Yposition Zposition Zrotation Xrotation Yrotation 
				JOINT Foot_L
				{
					OFFSET 40.9854 0.0 -1.26872e-05
					CHANNELS 6 Xposition Yposition Zposition Zrotation Xrotation Yrotation 
					JOINT Toes_L
					{
						OFFSET 11.7543 0.0 0.0
						CHANNELS 6 Xposition Yposition Zposition Zrotation Xrotation Yrotation 
						End Site
						{
							OFFSET 0.0 0.0 0.0
						}
					}
				}
			}
		}
		JOINT UpperLeg_R
		{
			OFFSET -2.19251 6.46944 0.0
			CHANNELS 6 Xposition Yposition Zposition Zrotation Xrotation Yrotation 
			JOINT LowerLeg_R
			{
				OFFSET -39.0811 -0.00228153 -0.0401928
				CHANNELS 6 Xposition Yposition Zposition Zrotation Xrotation Yrotation 
				JOINT Foot_R
				{
					OFFSET -40.9854 0.0 0.0
					CHANNELS 6 Xposition Yposition Zposition Zrotation Xrotation Yrotation 
					JOINT Toes_R
					{
						OFFSET -11.7543 0.0 0.0
						CHANNELS 6 Xposition Yposition Zposition Zrotation Xrotation Yrotation 
						End Site
						{
							OFFSET 0.0 0.0 0.0
						}
					}
				}
			}
		}
	}
}
MOTION
Frames:	6
Frame Time:	0.0333333
0.000000 0.000000 0.000000 0.000000 0.000000 -0.000000 -2.278470 91.760800 0.060337 84.914000 -1.642290 9.207200 15.735700 0.000005 -0.000001 75.466600 85.362400 -72.872700 8.984550 -0.406207 -0.000000 1.274950 -2.473290 5.211570 16.377300 -0.000001 -0.000001 15.846800 2.737210 10.404800 6.456720 -0.000001 -0.000000 -7.969290 -0.475045 21.425300 12.994200 -0.242716 4.980390 -91.908100 5.178380 -69.740300 5.348090 -0.000007 -0.000001 -79.941600 -21.405300 -10.698800 24.328600 0.000019 0.000005 25.103200 -30.096300 -136.946000 22.291600 -0.000001 0.000005 40.866400 5.033220 6.604540 12.994500 -0.242716 -4.980390 86.851700 7.374570 -66.803500 -5.348130 -0.000001 -0.000004 -71.349400 -9.077130 -12.517700 -24.328900 0.000322 -0.000009 14.202100 -17.089100 -139.263000 -22.291500 -0.000108 -0.000004 51.030300 5.644230 -14.487400 -2.192480 -6.469440 -0.000000 -175.412000 1.343490 1.954360 39.081100 -0.000007 -0.000012 0.420185 -0.779833 28.317500 40.985400 -0.000006 -0.000013 0.675559 -0.201651 -76.183000 11.754300 -0.000000 0.000003 -0.000746 0.179364 -9.301190 -2.192510 6.469440 -0.000001 -172.861000 9.152310 -171.692000 -39.081100 -0.002282 -0.040193 0.137825 -0.424907 17.564700 -40.985400 0.000008 0.000006 4.867620 4.905410 -72.490200 -11.754300 -0.000006 -0.000006 -0.011167 0.279826 -5.202310
0.000000 0.000000 0.000000 0.000000 0.000000 -0.000000 -2.265090 91.772500 0.041466 84.942600 -1.593870 9.107310 15.735700 0.000005 -0.000001 75.524300 85.375200 -72.962800 8.984550 -0.406207 -0.000000 1.251270 -2.456560 5.146160 16.377300 -0.000001 -0.000001 15.771500 2.716950 10.301400 6.456720 -0.000001 -0.000000 -8.000130 -0.547962 21.303900 12.994200 -0.242716 4.980390 -91.937300 5.252480 -69.721100 5.348090 -0.000007 -0.000001 -79.817200 -21.635000 -10.696700 24.328600 0.000019 0.000005 25.029500 -29.988000 -136.948000 22.291600 -0.000001 0.000005 41.210100 5.026390 6.752980 12.994500 -0.242716 -4.980390 86.822500 7.423890 -66.749200 -5.348130 -0.000001 -0.000004 -71.153500 -9.030870 -12.452400 -24.328900 0.000322 -0.000009 14.265000 -17.100500 -139.151000 -22.291500 -0.000108 -0.000004 50.691300 5.644460 -14.507300 -2.192480 -6.469440 -0.000000 -175.444000 1.346750 1.858870 39.081100 -0.000007 -0.000012 0.419226 -0.779835 28.262800 40.985400 -0.000006 -0.000013 0.691748 -0.165711 -76.173700 11.754300 -0.000000 0.000003 -0.000903 0.181643 -9.208580 -2.192510 6.469440 -0.000001 -172.859000 9.115540 -171.806000 -39.081100 -0.002282 -0.040193 0.137883 -0.425719 17.540300 -40.985400 0.000008 0.000006 4.841850 4.804920 -72.497400 -11.754300 -0.000006 -0.000006 -0.011259 0.280485 -5.175350
0.000000 0.000000 0.000000 0.000000 0.000000 -0.000000 -2.247330 91.782200 0.025854 84.954500 -1.549420 9.081950 15.735700 0.000005 -0.000001 75.807200 85.368900 -73.271800 8.984550 -0.406207 -0.000000 1.273180 -2.413460 5.093900 16.377300 -0.000001 -0.000001 15.681600 2.659450 10.213500 6.456720 -0.000001 -0.000000 -8.005790 -0.570245 21.109900 12.994200 -0.242716 4.980390 -91.952300 5.294580 -69.725400 5.348090 -0.000007 -0.000001 -79.686100 -21.763100 -10.684900 24.328600 0.000019 0.000005 25.145000 -30.078900 -136.877000 22.291600 -0.000001 0.000005 41.361900 5.009620 7.114150 12.994500 -0.242716 -4.980390 86.813500 7.429380 -66.705700 -5.348130 -0.000001 -0.000004 -71.088000 -8.965280 -12.474300 -24.328900 0.000322 -0.000009 14.312300 -17.092800 -139.041000 -22.291500 -0.000108 -0.000004 50.641400 5.642590 -14.345600 -2.192480 -6.469440 -0.000000 -175.473000 1.368720 1.821600 39.081100 -0.000007 -0.000012 0.416360 -0.775824 28.222100 40.985400 -0.000006 -0.000013 0.690347 -0.218663 -76.103400 11.754300 -0.000000 0.000003 -0.000924 0.181949 -9.196120 -2.192510 6.469440 -0.000001 -172.867000 9.036450 -171.851000 -39.081100 -0.002282 -0.040193 0.135469 -0.418076 17.540500 -40.985400 0.000008 0.000006 4.713550 4.727710 -72.459600 -11.754300 -0.000006 -0.000006 -0.011358 0.281188 -5.146580
0.000000 0.000000 0.000000 0.000000 0.000000 -0.000000 -2.214020 91.790400 0.001448 84.978700 -1.495420 8.990430 15.735700 0.000005 -0.000001 75.993100 85.378400 -73.487300 8.984550 -0.406207 -0.000000 1.260580 -2.378360 5.034090 16.377300 -0.000001 -0.000001 15.585700 2.643280 10.063000 6.456720 -0.000001 -0.000000 -8.024740 -0.593167 21.000100 12.994200 -0.242716 4.980390 -91.964500 5.321090 -69.702600 5.348090 -0.000007 -0.000001 -79.671700 -21.919300 -10.725100 24.328600 0.000019 0.000005 25.110100 -30.013500 -136.866000 22.291600 -0.000001 0.000005 41.056700 5.011250 7.079130 12.994500 -0.242716 -4.980390 86.803300 7.455090 -66.710500 -5.348130 -0.000001 -0.000004 -70.985800 -8.892200 -12.494300 -24.328900 0.000322 -0.000009 14.132000 -16.843300 -139.011000 -22.291500 -0.000108 -0.000004 50.508500 5.645190 -14.575000 -2.192480 -6.469440 -0.000000 -175.509000 1.347420 1.720960 39.081100 -0.000007 -0.000012 0.417139 -0.778514 28.184100 40.985400 -0.000006 -0.000013 0.738157 -0.135689 -76.061600 11.754300 -0.000000 0.000003 -0.001086 0.184252 -9.102520 -2.192510 6.469440 -0.000001 -172.906000 9.120380 -171.935000 -39.081100 -0.002282 -0.040193 0.137220 -0.424753 17.496500 -40.985400 0.000008 0.000006 4.822680 4.759540 -72.487800 -11.754300 -0.000006 -0.000006 -0.011726 0.283780 -5.040450
0.000000 0.000000 0.000000 0.000000 0.000000 -0.000000 -2.185620 91.802200 0.009474 84.995300 -1.410530 8.987310 15.735700 0.000005 -0.000001 76.357500 85.367100 -73.881800 8.984550 -0.406207 -0.000000 1.294560 -2.324160 4.974040 16.377300 -0.000001 -0.000001 15.514300 2.622120 10.013700 6.456720 -0.000001 -0.000000 -8.058600 -0.609810 20.794100 12.994200 -0.242716 4.980390 -91.988700 5.380350 -69.679900 5.348090 -0.000007 -0.000001 -79.593300 -21.927000 -10.803800 24.328600 0.000019 0.000005 25.275800 -30.028900 -136.664000 22.291600 -0.000001 0.000005 41.091700 5.010530 7.093840 12.994500 -0.242716 -4.980390 86.811000 7.437360 -66.711400 -5.348130 -0.000001 -0.000004 -70.987600 -8.855310 -12.454000 -24.328900 0.000322 -0.000009 14.034600 -16.720500 -139.014000 -22.291500 -0.000108 -0.000004 50.242000 5.643240 -14.401100 -2.192480 -6.469440 -0.000000 -175.529000 1.310840 1.751560 39.081100 -0.000007 -0.000012 0.413404 -0.774262 28.100300 40.985400 -0.000006 -0.000013 0.781681 -0.054057 -76.003200 11.754300 -0.000000 0.000003 -0.000915 0.181818 -9.201480 -2.192510 6.469440 -0.000001 -172.979000 9.209970 -171.929000 -39.081100 -0.002282 -0.040193 0.133731 -0.414269 17.473200 -40.985400 0.000008 0.000006 4.659920 4.842530 -72.431200 -11.754300 -0.000006 -0.000006 -0.011473 0.281999 -5.113370
0.000000 0.000000 0.000000 0.000000 0.000000 -0.000000 -2.149510 91.815100 -0.015256 85.036600 -1.297270 8.888790 15.735700 0.000005 -0.000001 76.363200 85.383300 -73.926500 8.984550 -0.406207 -0.000000 1.262010 -2.314110 4.895130 16.377300 -0.000001 -0.000001 15.435100 2.616300 9.944840 6.456720 -0.000001 -0.000000 -8.035380 -0.636247 20.714700 12.994200 -0.242716 4.980390 -92.002600 5.403260 -69.628400 5.348090 -0.000007 -0.000001 -79.601900 -22.047700 -10.827900 24.328600 0.000019 0.000005 25.221400 -29.847600 -136.577000 22.291600 -0.000001 0.000005 41.061800 5.015910 6.978660 12.994500 -0.242716 -4.980390 86.835700 7.406730 -66.788300 -5.348130 -0.000001 -0.000004 -71.002000 -8.749280 -12.427500 -24.328900 0.000322 -0.000009 14.114400 -16.735800 -138.871000 -22.291500 -0.000108 -0.000004 50.351100 5.643270 -14.404200 -2.192480 -6.469440 -0.000000 -175.584000 1.312340 1.655580 39.081100 -0.000007 -0.000012 0.415419 -0.780376 28.028900 40.985400 -0.000006 -0.000013 0.853732 0.101764 -75.963500 11.754300 -0.000000 0.000003 -0.000862 0.181058 -9.232330 -2.192510 6.469440 -0.000001 -173.050000 9.350680 -172.029000 -39.081100 -0.002282 -0.040193 0.134028 -0.416455 17.424300 -40.985400 0.000008 0.000006 4.680090 4.830690 -72.395800 -11.754300 -0.000006 -0.000006 -0.011483 0.282070 -5.110480
